<svg xmlns="http://www.w3.org/2000/svg" viewBox="0 0 681 681"><defs><style>.cls-1{fill:#fff;}.cls-2{fill:none;stroke:#000;stroke-linecap:round;stroke-linejoin:round;stroke-width:1.5px;stroke-dasharray:0.1 4;}.cls-3{fill:#8449b7;}.cls-4{fill:#931539;}.cls-5{fill:#dd1f29;}.cls-6{fill:#4c9f38;}.cls-7{fill:#08662f;}.cls-8{fill:#e96412;}.cls-9{fill:#1ba9d9;}.cls-10{fill:#f8cc0a;}.cls-11{fill:#1a3c54;}</style></defs><g id="HG"><circle class="cls-1" cx="340.5" cy="340.5" r="340.5"/></g><g id="TEXT"><g id="Erstsemesterakademie_BaWü" data-name="Erstsemesterakademie BaWü"><path d="M246.58524,536.50941h11.05469v2.36817H243.95926V517.318h13.084v2.36914h-10.458v6.96093h9.29785v2.36817h-9.29785Z" transform="translate(-70 -62)"/><path d="M270.22391,525.60023h-.19336a9.34937,9.34937,0,0,0-1.74023.16114,7.33165,7.33165,0,0,0-1.60352.49121,6.07892,6.07892,0,0,0-1.35351.81445,4.35458,4.35458,0,0,0-1.00781,1.14355v10.667h-2.49707V523.57H263.762l.4834,2.43359h.04883a5.64481,5.64481,0,0,1,.91015-1.1123,6.22562,6.22562,0,0,1,2.69922-1.50684,6.47519,6.47519,0,0,1,1.69141-.21679c.10742,0,.21777.00293.33008.00781.11328.00586.21191.01367.29882.02441Z" transform="translate(-70 -62)"/><path d="M274.67118,527.64711a1.8263,1.8263,0,0,0,.26855,1.03125,2.011,2.011,0,0,0,.7168.65234,4.62025,4.62025,0,0,0,1.03906.41113c.39453.10743.80078.20411,1.22168.29q.86573.19337,1.6377.42676a4.86219,4.86219,0,0,1,1.42578.70117,3.38467,3.38467,0,0,1,1.05566,1.26465,4.60961,4.60961,0,0,1,.40235,2.07031,4.51563,4.51563,0,0,1-.45117,2.05469,4.17907,4.17907,0,0,1-1.27344,1.49805,5.93874,5.93874,0,0,1-1.96582.91894,9.49446,9.49446,0,0,1-2.51367.31348,12.02065,12.02065,0,0,1-1.52247-.08789,9.97119,9.97119,0,0,1-1.209-.22559,8.07376,8.07376,0,0,1-.89453-.28222,5.7749,5.7749,0,0,1-.61133-.27344v-2.09473a13.18319,13.18319,0,0,0,1.88184.61231,8.75277,8.75277,0,0,0,2.05664.22558,7.25558,7.25558,0,0,0,1.59765-.16113,4.06937,4.06937,0,0,0,1.22657-.47559,2.25236,2.25236,0,0,0,.791-.79,2.1507,2.1507,0,0,0,.27637-1.10352,2.027,2.027,0,0,0-.25293-1.06348,2.111,2.111,0,0,0-.67969-.69238,4.11987,4.11987,0,0,0-.98926-.45117q-.561-.17726-1.17773-.32227-.80714-.17724-1.6377-.41894a5.79586,5.79586,0,0,1-1.51074-.67676,3.27751,3.27751,0,0,1-1.09863-1.18457,3.92077,3.92077,0,0,1-.41895-1.92578,4.70511,4.70511,0,0,1,.43457-2.09473,4.14727,4.14727,0,0,1,1.17676-1.46582,5.102,5.102,0,0,1,1.72363-.87012,7.307,7.307,0,0,1,2.07911-.29,10.88513,10.88513,0,0,1,2.36035.24121,11.70025,11.70025,0,0,1,1.97363.6123v2.127a14.67166,14.67166,0,0,0-1.91016-.60449,9.07815,9.07815,0,0,0-1.98925-.249,5.37068,5.37068,0,0,0-1.47754.17676,2.88479,2.88479,0,0,0-1.00684.49121,1.8878,1.8878,0,0,0-.57324.74121A2.3894,2.3894,0,0,0,274.67118,527.64711Z" transform="translate(-70 -62)"/><path d="M294.29813,538.9098a5.22064,5.22064,0,0,1-.9834.24121,10.64429,10.64429,0,0,1-1.5791.12891,6.57456,6.57456,0,0,1-2.09472-.29785,3.94184,3.94184,0,0,1-1.47461-.85352,3.47679,3.47679,0,0,1-.87793-1.3457,5.05951,5.05951,0,0,1-.29-1.75586v-9.31348h-2.94824V523.57h2.94824v-4.18945h2.49707V523.57h4.57617v2.14355H289.4954v8.92676a3.05177,3.05177,0,0,0,.15332.98242,2.00362,2.00362,0,0,0,.4834.78125,2.242,2.242,0,0,0,.8457.51563,3.672,3.672,0,0,0,1.24121.18555,7.37555,7.37555,0,0,0,1.05566-.08008,8.43069,8.43069,0,0,0,1.02344-.21Z" transform="translate(-70 -62)"/><path d="M299.469,527.64711a1.82622,1.82622,0,0,0,.26856,1.03125,2.01085,2.01085,0,0,0,.71679.65234,4.62025,4.62025,0,0,0,1.03906.41113c.39454.10743.80079.20411,1.22168.29q.86572.19337,1.6377.42676a4.86219,4.86219,0,0,1,1.42578.70117,3.38467,3.38467,0,0,1,1.05566,1.26465,4.60961,4.60961,0,0,1,.40235,2.07031,4.51563,4.51563,0,0,1-.45117,2.05469,4.17907,4.17907,0,0,1-1.27344,1.49805,5.93874,5.93874,0,0,1-1.96582.91894,9.49446,9.49446,0,0,1-2.51367.31348,12.02037,12.02037,0,0,1-1.52246-.08789,9.971,9.971,0,0,1-1.209-.22559,8.07376,8.07376,0,0,1-.89453-.28222,5.7749,5.7749,0,0,1-.61133-.27344v-2.09473a13.18319,13.18319,0,0,0,1.88184.61231,8.75283,8.75283,0,0,0,2.05664.22558,7.25568,7.25568,0,0,0,1.59766-.16113,4.06941,4.06941,0,0,0,1.22656-.47559,2.25236,2.25236,0,0,0,.791-.79,2.1507,2.1507,0,0,0,.27637-1.10352,2.0269,2.0269,0,0,0-.25293-1.06348,2.111,2.111,0,0,0-.67969-.69238,4.11979,4.11979,0,0,0-.98925-.45117q-.561-.17726-1.17774-.32227-.80712-.17724-1.63769-.41894a5.79593,5.79593,0,0,1-1.51075-.67676,3.27751,3.27751,0,0,1-1.09863-1.18457,3.92078,3.92078,0,0,1-.41894-1.92578,4.705,4.705,0,0,1,.43457-2.09473,4.14724,4.14724,0,0,1,1.17675-1.46582,5.102,5.102,0,0,1,1.72364-.87012,7.30685,7.30685,0,0,1,2.0791-.29,10.88513,10.88513,0,0,1,2.36035.24121,11.70025,11.70025,0,0,1,1.97363.6123v2.127a14.67153,14.67153,0,0,0-1.91015-.60449,9.07832,9.07832,0,0,0-1.98926-.249,5.37073,5.37073,0,0,0-1.47754.17676,2.88479,2.88479,0,0,0-1.00684.49121,1.8878,1.8878,0,0,0-.57324.74121A2.3894,2.3894,0,0,0,299.469,527.64711Z" transform="translate(-70 -62)"/><path d="M318.28934,537.10512a11.72437,11.72437,0,0,0,2.26465-.20118,13.55229,13.55229,0,0,0,2.03809-.57226v2.0791a8.13838,8.13838,0,0,1-2.03028.63574,13.6306,13.6306,0,0,1-2.59472.2334,11.04146,11.04146,0,0,1-3.085-.418,6.39752,6.39752,0,0,1-2.49707-1.35351,6.27875,6.27875,0,0,1-1.65137-2.44141,9.85966,9.85966,0,0,1-.59668-3.63379,10.32083,10.32083,0,0,1,.57812-3.63379,7.6589,7.6589,0,0,1,1.543-2.56933,6.29,6.29,0,0,1,2.21778-1.54688,6.826,6.826,0,0,1,2.62011-.51562,6.68631,6.68631,0,0,1,2.40332.42675,4.91975,4.91975,0,0,1,1.93653,1.34571,6.57149,6.57149,0,0,1,1.29394,2.36816,11.25492,11.25492,0,0,1,.47461,3.48047v.33008q0,.13769-.0166.62109H312.61747a6.26,6.26,0,0,0,.44336,2.48926,4.36614,4.36614,0,0,0,1.209,1.65918,4.78964,4.78964,0,0,0,1.79688.92676A8.17182,8.17182,0,0,0,318.28934,537.10512ZM316.972,525.31019a3.82749,3.82749,0,0,0-1.60645.33887,4.15732,4.15732,0,0,0-1.29687.918,4.65376,4.65376,0,0,0-.89746,1.36133,5.35592,5.35592,0,0,0-.42481,1.668h7.832a5.76947,5.76947,0,0,0-.23731-1.6836,4.08292,4.08292,0,0,0-.69336-1.36133,3.247,3.247,0,0,0-1.126-.91113A3.461,3.461,0,0,0,316.972,525.31019Z" transform="translate(-70 -62)"/><path d="M339.94559,538.87758h-2.49707v-9.84473a5.80274,5.80274,0,0,0-.21777-1.7002,3.00357,3.00357,0,0,0-.62891-1.15234,2.4477,2.4477,0,0,0-.98242-.66016,3.70794,3.70794,0,0,0-1.28125-.21,4.3489,4.3489,0,0,0-2.43262.7168,7.23161,7.23161,0,0,0-1.96679,1.97461v10.876h-2.49707V523.57h1.93359l.4834,2.12695h.04883a8.7554,8.7554,0,0,1,.91015-.99121,5.8957,5.8957,0,0,1,1.09571-.80566,5.52542,5.52542,0,0,1,1.3291-.53907,6.11562,6.11562,0,0,1,1.5791-.19335,4.68992,4.68992,0,0,1,2.83594.82128,5.29845,5.29845,0,0,1,1.74023,2.24024h.06445a8.13892,8.13892,0,0,1,2.32422-2.24805,5.65347,5.65347,0,0,1,3.04981-.81347,7.07413,7.07413,0,0,1,1.71094.22558,4.33115,4.33115,0,0,1,1.6621.8291,4.58963,4.58963,0,0,1,1.25879,1.668,6.46866,6.46866,0,0,1,.5,2.73926v10.248H347.47v-9.84473a5.8053,5.8053,0,0,0-.2168-1.7002,3.00357,3.00357,0,0,0-.62891-1.15234,2.4477,2.4477,0,0,0-.98242-.66016,3.70794,3.70794,0,0,0-1.28125-.21,4.39349,4.39349,0,0,0-2.4414.7168,7.19777,7.19777,0,0,0-1.97364,1.97461Z" transform="translate(-70 -62)"/><path d="M362.053,537.10512a11.7243,11.7243,0,0,0,2.26465-.20118,13.55229,13.55229,0,0,0,2.03809-.57226v2.0791a8.13843,8.13843,0,0,1-2.03027.63574,13.63078,13.63078,0,0,1-2.59473.2334,11.04156,11.04156,0,0,1-3.085-.418,6.39752,6.39752,0,0,1-2.49707-1.35351,6.27875,6.27875,0,0,1-1.65137-2.44141,9.85966,9.85966,0,0,1-.59668-3.63379,10.3206,10.3206,0,0,1,.57813-3.63379,7.65888,7.65888,0,0,1,1.543-2.56933,6.29,6.29,0,0,1,2.21778-1.54688,6.82609,6.82609,0,0,1,2.62012-.51562,6.68638,6.68638,0,0,1,2.40332.42675,4.91978,4.91978,0,0,1,1.93652,1.34571,6.57149,6.57149,0,0,1,1.29394,2.36816,11.25492,11.25492,0,0,1,.47461,3.48047v.33008q0,.13769-.0166.62109H356.38114a6.26,6.26,0,0,0,.44336,2.48926,4.36614,4.36614,0,0,0,1.209,1.65918,4.78964,4.78964,0,0,0,1.79688.92676A8.17182,8.17182,0,0,0,362.053,537.10512Zm-1.31738-11.79493a3.82741,3.82741,0,0,0-1.60644.33887,4.15724,4.15724,0,0,0-1.29688.918,4.654,4.654,0,0,0-.89746,1.36133,5.3559,5.3559,0,0,0-.4248,1.668h7.832a5.76914,5.76914,0,0,0-.23731-1.6836,4.08273,4.08273,0,0,0-.69336-1.36133,3.24686,3.24686,0,0,0-1.126-.91113A3.46106,3.46106,0,0,0,360.73563,525.31019Z" transform="translate(-70 -62)"/><path d="M372.99344,527.64711a1.8263,1.8263,0,0,0,.26856,1.03125,2.0108,2.0108,0,0,0,.7168.65234,4.61988,4.61988,0,0,0,1.03906.41113c.39453.10743.80078.20411,1.22168.29q.86573.19337,1.63769.42676a4.86207,4.86207,0,0,1,1.42578.70117,3.3847,3.3847,0,0,1,1.05567,1.26465,4.60962,4.60962,0,0,1,.40234,2.07031,4.5155,4.5155,0,0,1-.45117,2.05469,4.17907,4.17907,0,0,1-1.27344,1.49805,5.93865,5.93865,0,0,1-1.96582.91894,9.49435,9.49435,0,0,1-2.51367.31348,12.02049,12.02049,0,0,1-1.52246-.08789,9.97119,9.97119,0,0,1-1.209-.22559,8.07331,8.07331,0,0,1-.89454-.28222,5.7737,5.7737,0,0,1-.61132-.27344v-2.09473a13.18267,13.18267,0,0,0,1.88183.61231,8.75283,8.75283,0,0,0,2.05664.22558,7.25568,7.25568,0,0,0,1.59766-.16113,4.0692,4.0692,0,0,0,1.22656-.47559,2.25231,2.25231,0,0,0,.791-.79,2.15069,2.15069,0,0,0,.27636-1.10352,2.0269,2.0269,0,0,0-.25293-1.06348,2.11083,2.11083,0,0,0-.67968-.69238,4.12,4.12,0,0,0-.98926-.45117q-.561-.17726-1.17773-.32227-.80714-.17724-1.6377-.41894a5.79586,5.79586,0,0,1-1.51074-.67676,3.27745,3.27745,0,0,1-1.09864-1.18457,3.92089,3.92089,0,0,1-.41894-1.92578,4.705,4.705,0,0,1,.43457-2.09473,4.14727,4.14727,0,0,1,1.17676-1.46582,5.10192,5.10192,0,0,1,1.72363-.87012,7.3069,7.3069,0,0,1,2.0791-.29,10.885,10.885,0,0,1,2.36035.24121,11.70038,11.70038,0,0,1,1.97364.6123v2.127a14.67215,14.67215,0,0,0-1.91016-.60449,9.07824,9.07824,0,0,0-1.98926-.249,5.37078,5.37078,0,0,0-1.47754.17676,2.88465,2.88465,0,0,0-1.00683.49121,1.88771,1.88771,0,0,0-.57324.74121A2.38923,2.38923,0,0,0,372.99344,527.64711Z" transform="translate(-70 -62)"/><path d="M392.6204,538.9098a5.22064,5.22064,0,0,1-.9834.24121,10.64441,10.64441,0,0,1-1.5791.12891,6.57458,6.57458,0,0,1-2.09473-.29785,3.94192,3.94192,0,0,1-1.47461-.85352,3.47691,3.47691,0,0,1-.87793-1.3457,5.05951,5.05951,0,0,1-.29-1.75586v-9.31348h-2.94824V523.57h2.94824v-4.18945h2.49707V523.57h4.57618v2.14355h-4.57618v8.92676a3.05177,3.05177,0,0,0,.15332.98242,2.00374,2.00374,0,0,0,.4834.78125,2.24215,2.24215,0,0,0,.84571.51563,3.672,3.672,0,0,0,1.24121.18555,7.37565,7.37565,0,0,0,1.05566-.08008,8.43069,8.43069,0,0,0,1.02344-.21Z" transform="translate(-70 -62)"/><path d="M403.27079,537.10512a11.72437,11.72437,0,0,0,2.26465-.20118,13.55217,13.55217,0,0,0,2.03808-.57226v2.0791a8.13843,8.13843,0,0,1-2.03027.63574,13.63071,13.63071,0,0,1-2.59473.2334,11.04156,11.04156,0,0,1-3.085-.418,6.39766,6.39766,0,0,1-2.49707-1.35351,6.279,6.279,0,0,1-1.65137-2.44141,9.85987,9.85987,0,0,1-.59668-3.63379,10.32082,10.32082,0,0,1,.57813-3.63379,7.65874,7.65874,0,0,1,1.543-2.56933,6.28984,6.28984,0,0,1,2.21777-1.54688,6.82609,6.82609,0,0,1,2.62012-.51562,6.68638,6.68638,0,0,1,2.40332.42675,4.91971,4.91971,0,0,1,1.93652,1.34571,6.5715,6.5715,0,0,1,1.294,2.36816,11.25522,11.25522,0,0,1,.47461,3.48047v.33008q0,.13769-.0166.62109H397.59891a6.26,6.26,0,0,0,.44336,2.48926,4.36606,4.36606,0,0,0,1.209,1.65918,4.7896,4.7896,0,0,0,1.79687.92676A8.17194,8.17194,0,0,0,403.27079,537.10512Zm-1.31738-11.79493a3.82746,3.82746,0,0,0-1.60645.33887,4.1572,4.1572,0,0,0-1.29687.918,4.654,4.654,0,0,0-.89747,1.36133,5.35618,5.35618,0,0,0-.4248,1.668h7.832a5.76947,5.76947,0,0,0-.2373-1.6836,4.08311,4.08311,0,0,0-.69336-1.36133,3.247,3.247,0,0,0-1.126-.91113A3.461,3.461,0,0,0,401.95341,525.31019Z" transform="translate(-70 -62)"/><path d="M420.81962,525.60023h-.19336a9.3494,9.3494,0,0,0-1.74024.16114,7.3314,7.3314,0,0,0-1.60351.49121,6.07922,6.07922,0,0,0-1.35352.81445,4.35458,4.35458,0,0,0-1.00781,1.14355v10.667h-2.49707V523.57h1.93359l.4834,2.43359h.04883a5.64451,5.64451,0,0,1,.91016-1.1123,6.20605,6.20605,0,0,1,1.21679-.90235,6.26862,6.26862,0,0,1,1.48242-.60449,6.47524,6.47524,0,0,1,1.69141-.21679c.10742,0,.21777.00293.33008.00781.11328.00586.21191.01367.29883.02441Z" transform="translate(-70 -62)"/><path d="M432.43583,537.18617h-.06446a4.95059,4.95059,0,0,1-.77343.76465,5.579,5.579,0,0,1-1.0791.67676,6.654,6.654,0,0,1-1.3379.47558,6.498,6.498,0,0,1-1.54687.17676,6.0165,6.0165,0,0,1-2.03809-.33008,4.43594,4.43594,0,0,1-1.5957-.96679,4.37329,4.37329,0,0,1-1.03906-1.55469,5.51235,5.51235,0,0,1-.37012-2.07813,4.89542,4.89542,0,0,1,.41016-2.04687,4.3397,4.3397,0,0,1,1.15234-1.53028,5.21649,5.21649,0,0,1,1.78027-.96679,7.38622,7.38622,0,0,1,2.2959-.33887,12.73663,12.73663,0,0,1,2.208.21,11.48951,11.48951,0,0,1,1.80469.4834h.06445V529.0973a6.8271,6.8271,0,0,0-.08105-1.1123,2.84475,2.84475,0,0,0-.27344-.85352,3.2434,3.2434,0,0,0-1.33789-1.28125,5.13447,5.13447,0,0,0-2.48047-.50781,10.45215,10.45215,0,0,0-2.18359.21777,13.72553,13.72553,0,0,0-2.03907.6045V524.07a6.5956,6.5956,0,0,1,.91114-.36328,10.87531,10.87531,0,0,1,1.10351-.29,11.86411,11.86411,0,0,1,1.22461-.18457q.64454-.06445,1.28906-.06445a7.74677,7.74677,0,0,1,3.79493.82128,4.89344,4.89344,0,0,1,2.11816,2.17579,4.33112,4.33112,0,0,1,.34668,1.13574,8.15182,8.15182,0,0,1,.10449,1.36133v10.21582h-2.09375Zm-.12891-5.02734q-.68994-.19336-1.63672-.3711a12.29657,12.29657,0,0,0-2.085-.19336,4.05021,4.05021,0,0,0-2.48633.67676,2.43623,2.43623,0,0,0-.89843,2.0791,3.17321,3.17321,0,0,0,.22461,1.24024,2.3834,2.3834,0,0,0,.61816.87793,2.52521,2.52521,0,0,0,.93066.51562,3.77684,3.77684,0,0,0,1.14649.16992,4.60311,4.60311,0,0,0,1.49121-.23437,6.30285,6.30285,0,0,0,1.22754-.55567,6.72339,6.72339,0,0,0,.91406-.64453c.25195-.21484.43555-.38086.55371-.499Z" transform="translate(-70 -62)"/><path d="M449.54813,523.57H452.804l-7.47656,7.042,7.46,8.26563H449.677l-7.34766-8.15332h-.03125v8.15332h-2.498v-23.332h2.498V530.402h.03125Z" transform="translate(-70 -62)"/><path d="M464.66239,537.18617h-.06445a4.95069,4.95069,0,0,1-.77344.76465,5.57874,5.57874,0,0,1-1.0791.67676,6.65391,6.65391,0,0,1-1.33789.47558,6.49814,6.49814,0,0,1-1.54688.17676,6.0164,6.0164,0,0,1-2.03808-.33008,4.43589,4.43589,0,0,1-1.59571-.96679,4.37329,4.37329,0,0,1-1.03906-1.55469,5.51235,5.51235,0,0,1-.37012-2.07813,4.89542,4.89542,0,0,1,.41016-2.04687,4.3397,4.3397,0,0,1,1.15234-1.53028,5.21645,5.21645,0,0,1,1.78028-.96679,7.38618,7.38618,0,0,1,2.2959-.33887,12.73641,12.73641,0,0,1,2.208.21,11.48951,11.48951,0,0,1,1.80469.4834h.06445V529.0973a6.8271,6.8271,0,0,0-.08105-1.1123,2.84475,2.84475,0,0,0-.27344-.85352,3.2434,3.2434,0,0,0-1.33789-1.28125,5.13447,5.13447,0,0,0-2.48047-.50781,10.45215,10.45215,0,0,0-2.18359.21777,13.72506,13.72506,0,0,0-2.03906.6045V524.07a6.59493,6.59493,0,0,1,.91113-.36328,10.876,10.876,0,0,1,1.10351-.29,11.86452,11.86452,0,0,1,1.22461-.18457q.64453-.06445,1.28907-.06445a7.74676,7.74676,0,0,1,3.79492.82128,4.89344,4.89344,0,0,1,2.11816,2.17579,4.33075,4.33075,0,0,1,.34668,1.13574,8.15182,8.15182,0,0,1,.10449,1.36133v10.21582H464.9368Zm-.12891-5.02734q-.68994-.19336-1.63672-.3711a12.29647,12.29647,0,0,0-2.085-.19336,4.05016,4.05016,0,0,0-2.48632.67676,2.43621,2.43621,0,0,0-.89844,2.0791,3.17321,3.17321,0,0,0,.22461,1.24024,2.38351,2.38351,0,0,0,.61816.87793,2.52525,2.52525,0,0,0,.93067.51562,3.77672,3.77672,0,0,0,1.14648.16992,4.60307,4.60307,0,0,0,1.49121-.23437,6.30285,6.30285,0,0,0,1.22754-.55567,6.72276,6.72276,0,0,0,.91406-.64453c.252-.21484.43555-.38086.55371-.499Z" transform="translate(-70 -62)"/><path d="M470.97977,531.41762a11.52027,11.52027,0,0,1,.31348-2.82813,8.862,8.862,0,0,1,.83008-2.15137,5.95957,5.95957,0,0,1,1.208-1.53906,7.054,7.054,0,0,1,1.43457-1.00684,6.06883,6.06883,0,0,1,1.50683-.55566,6.65364,6.65364,0,0,1,1.44141-.16894,5.852,5.852,0,0,1,2.43359.46679,5.66731,5.66731,0,0,1,1.85352,1.37012h.04785v-9.459h2.49707v23.332h-1.88477l-.51562-1.708h-.06445a7.62384,7.62384,0,0,1-.67676.749,4.63576,4.63576,0,0,1-.91016.68555,4.96584,4.96584,0,0,1-1.209.49121,6.12257,6.12257,0,0,1-1.58692.18457,7.3304,7.3304,0,0,1-2.46484-.42676,5.68818,5.68818,0,0,1-2.15137-1.36914,6.9434,6.9434,0,0,1-1.52246-2.43359A10.04135,10.04135,0,0,1,470.97977,531.41762Zm2.60938-.03223a8.89807,8.89807,0,0,0,.29883,2.39258,5.381,5.381,0,0,0,.86132,1.82031,3.81026,3.81026,0,0,0,1.38672,1.15234,4.22517,4.22517,0,0,0,1.88477.40332,4.61963,4.61963,0,0,0,1.43359-.21,5.06143,5.06143,0,0,0,2.02246-1.21679,4.7795,4.7795,0,0,0,.57227-.668v-8.00879a6.12622,6.12622,0,0,0-1.78809-1.26465,5.11645,5.11645,0,0,0-2.1914-.47559,4.64147,4.64147,0,0,0-1.49121.26563,3.67087,3.67087,0,0,0-1.4502.959,5.32432,5.32432,0,0,0-1.10352,1.86133A8.68535,8.68535,0,0,0,473.58915,531.38539Z" transform="translate(-70 -62)"/><path d="M496.8079,537.10512a11.72437,11.72437,0,0,0,2.26465-.20118,13.55217,13.55217,0,0,0,2.03808-.57226v2.0791a8.13843,8.13843,0,0,1-2.03027.63574,13.63078,13.63078,0,0,1-2.59473.2334,11.04156,11.04156,0,0,1-3.085-.418,6.39766,6.39766,0,0,1-2.49707-1.35351,6.27886,6.27886,0,0,1-1.65137-2.44141,9.85987,9.85987,0,0,1-.59668-3.63379,10.32082,10.32082,0,0,1,.57813-3.63379,7.65874,7.65874,0,0,1,1.543-2.56933,6.28984,6.28984,0,0,1,2.21777-1.54688,6.82609,6.82609,0,0,1,2.62012-.51562,6.68638,6.68638,0,0,1,2.40332.42675,4.91971,4.91971,0,0,1,1.93652,1.34571,6.5715,6.5715,0,0,1,1.29395,2.36816,11.25522,11.25522,0,0,1,.47461,3.48047v.33008q0,.13769-.0166.62109H491.136a6.26,6.26,0,0,0,.44336,2.48926,4.36606,4.36606,0,0,0,1.209,1.65918,4.78952,4.78952,0,0,0,1.79687.92676A8.17189,8.17189,0,0,0,496.8079,537.10512Zm-1.31739-11.79493a3.82745,3.82745,0,0,0-1.60644.33887,4.15736,4.15736,0,0,0-1.29688.918,4.65416,4.65416,0,0,0-.89746,1.36133,5.35618,5.35618,0,0,0-.4248,1.668h7.832a5.76947,5.76947,0,0,0-.2373-1.6836,4.08311,4.08311,0,0,0-.69336-1.36133,3.247,3.247,0,0,0-1.126-.91113A3.461,3.461,0,0,0,495.49051,525.31019Z" transform="translate(-70 -62)"/><path d="M518.46512,538.87758H515.968v-9.84473a5.80274,5.80274,0,0,0-.21777-1.7002,3.00357,3.00357,0,0,0-.62891-1.15234,2.4477,2.4477,0,0,0-.98242-.66016,3.70794,3.70794,0,0,0-1.28125-.21,4.34884,4.34884,0,0,0-2.43261.7168,7.2315,7.2315,0,0,0-1.9668,1.97461v10.876h-2.49707V523.57h1.93359l.4834,2.12695h.04883a8.7554,8.7554,0,0,1,.91015-.99121A5.8957,5.8957,0,0,1,510.4329,523.9a5.52542,5.52542,0,0,1,1.3291-.53907,6.11562,6.11562,0,0,1,1.5791-.19335,4.6899,4.6899,0,0,1,2.83594.82128,5.29845,5.29845,0,0,1,1.74023,2.24024h.06446a8.13876,8.13876,0,0,1,2.32421-2.24805,5.65347,5.65347,0,0,1,3.04981-.81347,7.07407,7.07407,0,0,1,1.71094.22558,4.33119,4.33119,0,0,1,1.66211.8291,4.58985,4.58985,0,0,1,1.25879,1.668,6.46882,6.46882,0,0,1,.5,2.73926v10.248h-2.498v-9.84473a5.8053,5.8053,0,0,0-.2168-1.7002,3.00369,3.00369,0,0,0-.6289-1.15234,2.44781,2.44781,0,0,0-.98243-.66016,3.70794,3.70794,0,0,0-1.28125-.21,4.39351,4.39351,0,0,0-2.4414.7168,7.19791,7.19791,0,0,0-1.97364,1.97461Z" transform="translate(-70 -62)"/><path d="M533.40165,520.00941v-2.78808h2.498v2.78808Zm.06445,18.86817V523.57h2.49805v15.30762Z" transform="translate(-70 -62)"/><path d="M548.22587,537.10512a11.72426,11.72426,0,0,0,2.26464-.20118,13.552,13.552,0,0,0,2.03809-.57226v2.0791a8.13843,8.13843,0,0,1-2.03027.63574,13.63078,13.63078,0,0,1-2.59473.2334,11.04156,11.04156,0,0,1-3.085-.418,6.39759,6.39759,0,0,1-2.49707-1.35351,6.27875,6.27875,0,0,1-1.65137-2.44141,9.85966,9.85966,0,0,1-.59668-3.63379,10.32082,10.32082,0,0,1,.57813-3.63379,7.65874,7.65874,0,0,1,1.543-2.56933,6.28984,6.28984,0,0,1,2.21777-1.54688,6.82609,6.82609,0,0,1,2.62012-.51562,6.68638,6.68638,0,0,1,2.40332.42675,4.91978,4.91978,0,0,1,1.93652,1.34571,6.5715,6.5715,0,0,1,1.29395,2.36816,11.25522,11.25522,0,0,1,.47461,3.48047v.33008q0,.13769-.01661.62109H542.554a6.26,6.26,0,0,0,.44336,2.48926,4.36606,4.36606,0,0,0,1.209,1.65918,4.78952,4.78952,0,0,0,1.79687.92676A8.17184,8.17184,0,0,0,548.22587,537.10512Zm-1.31739-11.79493a3.82745,3.82745,0,0,0-1.60644.33887,4.15724,4.15724,0,0,0-1.29688.918,4.65416,4.65416,0,0,0-.89746,1.36133,5.35618,5.35618,0,0,0-.4248,1.668h7.832a5.76914,5.76914,0,0,0-.23731-1.6836,4.08273,4.08273,0,0,0-.69336-1.36133,3.24686,3.24686,0,0,0-1.126-.91113A3.461,3.461,0,0,0,546.90848,525.31019Z" transform="translate(-70 -62)"/><path d="M567.89969,517.33461a29.06728,29.06728,0,0,1,4.20606.2334,7.36013,7.36013,0,0,1,2.707.96679,4.6529,4.6529,0,0,1,1.75684,1.76465,5.23723,5.23723,0,0,1,.54687,2.48145q0,3.99609-4.06055,4.94629v.06445a5.12322,5.12322,0,0,1,3.65821,1.36133,4.918,4.918,0,0,1,1.32129,3.65039,5.64564,5.64564,0,0,1-.959,3.166,5.92233,5.92233,0,0,1-2.56152,2.1836,13.32708,13.32708,0,0,1-5.13281.72461h-4.94629v-21.543Zm7.62207,5.51074a4.025,4.025,0,0,0-.65234-2.39355,3.92553,3.92553,0,0,0-2.00683-1.36915,14.54618,14.54618,0,0,0-4.30176-.459h-2.707v8.57227h4.43066a7.26332,7.26332,0,0,0,2.94922-.50782,3.65229,3.65229,0,0,0,1.708-1.499A4.55469,4.55469,0,0,0,575.52176,522.84535Zm.93458,9.958a4.54811,4.54811,0,0,0-.79786-2.76367,3.9852,3.9852,0,0,0-2.73144-1.39356,19.5891,19.5891,0,0,0-2.60938-.12891H565.8538v9.07129h3.73828a13.6596,13.6596,0,0,0,3.88379-.46679,3.781,3.781,0,0,0,2.26367-1.668A5.07417,5.07417,0,0,0,576.45634,532.80336Z" transform="translate(-70 -62)"/><path d="M581.91923,534.55922a4.14962,4.14962,0,0,1,1.458-3.30274,5.55952,5.55952,0,0,1,3.7627-1.25683,13.618,13.618,0,0,1,4.625.88574V528.9518a4.353,4.353,0,0,0-1.11231-3.23829,4.89875,4.89875,0,0,0-3.54492-1.0957,12.605,12.605,0,0,0-3.86719.75684v-1.208a5.29926,5.29926,0,0,1,1.61915-.50781,11.89714,11.89714,0,0,1,2.248-.21778,6.36954,6.36954,0,0,1,4.47949,1.37012,5.40307,5.40307,0,0,1,1.4668,4.14063v5.10839q0,1.59522.12891,4.81739h-1.16016l-.22656-1.75586h-.06445a6.30822,6.30822,0,0,1-2.15821,1.51465,6.58175,6.58175,0,0,1-2.75586.64355,5.20205,5.20205,0,0,1-3.55273-1.17578A4.45746,4.45746,0,0,1,581.91923,534.55922Zm9.8457,1.209v-3.75488a13.84366,13.84366,0,0,0-2.168-.63672,14.53133,14.53133,0,0,0-2.61816-.18457,4.00036,4.00036,0,0,0-2.74707.87793,3.15023,3.15023,0,0,0-.99122,2.48926,3.41237,3.41237,0,0,0,.9834,2.68261,3.74291,3.74291,0,0,0,2.59375.87891,5.60732,5.60732,0,0,0,2.916-.69336A8.74211,8.74211,0,0,0,591.76493,535.7682Z" transform="translate(-70 -62)"/><path d="M598.3704,517.33461l4.51172,16.32226q.59619,2.1753,1.12793,3.835h.03222q.27393-1.27295.87012-3.1416l.21-.72558,4.125-16.29h1.5625l4.15723,16.29q.854,3.416,1.01465,3.89941h.0332q.78808-2.417,1.19141-3.86719l4.52832-16.32226h1.51464l-6.44531,21.543h-1.64355l-4.15723-15.67774a31.46293,31.46293,0,0,1-.95117-4.2539H609.972q-.19336,1.20849-.98242,4.2539l-4.1582,15.67774H603.22l-6.38086-21.543Z" transform="translate(-70 -62)"/><path d="M626.71415,533.109v-9.28125h1.28906v9.60352a4.73179,4.73179,0,0,0,1.15234,3.56933,4.38108,4.38108,0,0,0,3.13379,1.08789,4.848,4.848,0,0,0,2.377-.53222,3.429,3.429,0,0,0,1.43359-1.46582,6.169,6.169,0,0,0,.47559-2.72364v-9.53906h1.28906v9.31348a9.8828,9.8828,0,0,1-.32227,2.83594,4.41363,4.41363,0,0,1-1.0957,1.8125,4.64344,4.64344,0,0,1-1.78809,1.13671,6.99919,6.99919,0,0,1-2.30468.35352,6.90168,6.90168,0,0,1-2.46485-.41016,4.90519,4.90519,0,0,1-1.79687-1.14453,4.44523,4.44523,0,0,1-1.04785-1.71582A9.66359,9.66359,0,0,1,626.71415,533.109Zm1.917-12.80957v-1.918h1.74023v1.918Zm5.73633,0v-1.918h1.72461v1.918Z" transform="translate(-70 -62)"/></g><g id="zukunfstsfähig"><path d="M389.08817,473.36879v-.0918H377.10868v-3.05176h16.501v2.249l-12.11719,16.4082v.0918h12.91992V492.027h-17.6709v-1.92773Z" transform="translate(-70 -62)"/><path d="M408.11259,492.60121a11.696,11.696,0,0,1-3.05176-.36719,8.30311,8.30311,0,0,1-2.375-1.0332,6.91083,6.91083,0,0,1-1.7334-1.59473,7.89539,7.89539,0,0,1-1.124-2.03125,8.02914,8.02914,0,0,1-.459-1.81347,15.65425,15.65425,0,0,1-.13769-2.15723V470.22523h3.55664v13.35645a8.269,8.269,0,0,0,.48242,3.02929,4.51184,4.51184,0,0,0,1.77832,2.16895,5.68407,5.68407,0,0,0,3.13281.791,5.48962,5.48962,0,0,0,3.24707-.87207,4.78007,4.78007,0,0,0,1.75586-2.34082,8.55145,8.55145,0,0,0,.39063-2.77637V470.22523h3.55664v13.40235a15.69218,15.69218,0,0,1-.126,2.05371,9.15008,9.15008,0,0,1-.40137,1.75586,7.932,7.932,0,0,1-1.13672,2.07715,7.03224,7.03224,0,0,1-1.77832,1.64062,8.58636,8.58636,0,0,1-2.44433,1.06738A11.93723,11.93723,0,0,1,408.11259,492.60121Z" transform="translate(-70 -62)"/><path d="M437.90165,470.22523h4.63476L431.888,480.25355,442.514,492.027h-4.42871l-10.46484-11.6123h-.04688V492.027h-3.55664V458.79652h3.55664V479.9557h.04688Z" transform="translate(-70 -62)"/><path d="M455.31864,492.60121a11.696,11.696,0,0,1-3.05176-.36719,8.30323,8.30323,0,0,1-2.375-1.0332,6.91083,6.91083,0,0,1-1.7334-1.59473,7.89539,7.89539,0,0,1-1.124-2.03125,8.02914,8.02914,0,0,1-.459-1.81347,15.65417,15.65417,0,0,1-.1377-2.15723V470.22523h3.55664v13.35645a8.269,8.269,0,0,0,.48242,3.02929,4.51184,4.51184,0,0,0,1.77832,2.16895,5.68411,5.68411,0,0,0,3.13282.791,5.48962,5.48962,0,0,0,3.24707-.87207,4.78007,4.78007,0,0,0,1.75586-2.34082,8.55174,8.55174,0,0,0,.39062-2.77637V470.22523h3.55664v13.40235a15.69044,15.69044,0,0,1-.126,2.05371,9.15084,9.15084,0,0,1-.40136,1.75586,7.93234,7.93234,0,0,1-1.13672,2.07715,7.03257,7.03257,0,0,1-1.77832,1.64062,8.58642,8.58642,0,0,1-2.44434,1.06738A11.93718,11.93718,0,0,1,455.31864,492.60121Z" transform="translate(-70 -62)"/><path d="M474.43583,473.25453h.06836a11.4718,11.4718,0,0,1,1.32031-1.41113,8.55278,8.55278,0,0,1,1.61719-1.14746,8.393,8.393,0,0,1,1.96289-.76954,9.82465,9.82465,0,0,1,5.1289.1377,5.76849,5.76849,0,0,1,2.27149,1.33105,6.3833,6.3833,0,0,1,1.52637,2.39844,10.29436,10.29436,0,0,1,.5625,3.6377V492.027h-3.55762V478.00453a6.1016,6.1016,0,0,0-1.08985-4.06152,4.0069,4.0069,0,0,0-3.17773-1.23926,6.88349,6.88349,0,0,0-3.55762,1.02148,9.47158,9.47158,0,0,0-2.96,2.81055V492.027h-3.55762V470.22523h2.75391Z" transform="translate(-70 -62)"/><path d="M508.42411,461.59633a13.4567,13.4567,0,0,0-1.51563-.207q-.82617-.06885-1.42187-.06836a7.19015,7.19015,0,0,0-2.14649.29785,3.76879,3.76879,0,0,0-1.59472.95312,4.29187,4.29187,0,0,0-.98731,1.72071,8.50919,8.50919,0,0,0-.34375,2.582v3.35058h6.49414V473.277h-6.49414v18.75H496.8577v-18.75h-3.833v-3.05176h3.833v-3.32812a11.00455,11.00455,0,0,1,.63086-3.98145,7.207,7.207,0,0,1,1.73242-2.66211,6.83506,6.83506,0,0,1,2.59375-1.53711,10.16014,10.16014,0,0,1,3.21289-.49414,16.68022,16.68022,0,0,1,2.03028.11524,8.32953,8.32953,0,0,1,1.36621.252Z" transform="translate(-70 -62)"/><path d="M522.2161,492.07289a7.42545,7.42545,0,0,1-1.39941.34473,15.30417,15.30417,0,0,1-2.249.18359,9.40278,9.40278,0,0,1-2.9834-.42481,5.59483,5.59483,0,0,1-2.0996-1.21679,4.93037,4.93037,0,0,1-1.251-1.916,7.21407,7.21407,0,0,1-.41309-2.502V473.277H507.6204v-3.05176h4.20019v-5.96679h3.55762v5.96679h6.51758V473.277h-6.51758v12.71387a4.332,4.332,0,0,0,.21777,1.40039,2.82271,2.82271,0,0,0,.68848,1.11328,3.20144,3.20144,0,0,0,1.20508.73437,5.24322,5.24322,0,0,0,1.7666.26368,10.40531,10.40531,0,0,0,1.50293-.11524,11.88838,11.88838,0,0,0,1.457-.29785Z" transform="translate(-70 -62)"/><path d="M529.58426,476.0309a2.59659,2.59659,0,0,0,.38086,1.46875,2.88586,2.88586,0,0,0,1.02051.92968,6.591,6.591,0,0,0,1.48145.585q.84081.23,1.73926.41308,1.23339.27538,2.333.6084a6.92429,6.92429,0,0,1,2.03028.99805,4.83929,4.83929,0,0,1,1.50293,1.80175,6.5612,6.5612,0,0,1,.57226,2.94922,6.4031,6.4031,0,0,1-.64258,2.92578,5.932,5.932,0,0,1-1.8125,2.13477,8.45967,8.45967,0,0,1-2.7998,1.30762,13.479,13.479,0,0,1-3.58008.44824,17.0176,17.0176,0,0,1-2.16894-.12695,13.90474,13.90474,0,0,1-1.72071-.32129,11.48463,11.48463,0,0,1-1.27344-.40137,8.29517,8.29517,0,0,1-.873-.39063v-2.98339a18.78474,18.78474,0,0,0,2.68164.87207,12.44335,12.44335,0,0,0,2.92969.32129,10.31642,10.31642,0,0,0,2.27539-.2295,5.74542,5.74542,0,0,0,1.74609-.67675,3.20927,3.20927,0,0,0,1.127-1.124,3.06875,3.06875,0,0,0,.39453-1.57226,2.88886,2.88886,0,0,0-.36132-1.51465,3.01665,3.01665,0,0,0-.96875-.98731,5.901,5.901,0,0,0-1.40821-.64257q-.7998-.252-1.67773-.459-1.14845-.252-2.332-.59668a8.24217,8.24217,0,0,1-2.15137-.96387,4.65419,4.65419,0,0,1-1.56543-1.68652,5.57021,5.57021,0,0,1-.59766-2.74219,6.70206,6.70206,0,0,1,.62012-2.9834,5.92744,5.92744,0,0,1,1.67481-2.08886,7.28519,7.28519,0,0,1,2.45605-1.23926,10.40347,10.40347,0,0,1,2.96-.41309,15.488,15.488,0,0,1,3.36231.34473,16.67694,16.67694,0,0,1,2.81152.87207v3.0293a20.80487,20.80487,0,0,0-2.7207-.86035,12.91762,12.91762,0,0,0-2.833-.35645,7.66409,7.66409,0,0,0-2.10449.25293,4.06989,4.06989,0,0,0-1.4336.7002,2.68388,2.68388,0,0,0-.81738,1.05566A3.40235,3.40235,0,0,0,529.58426,476.0309Z" transform="translate(-70 -62)"/><path d="M558.68387,461.59633a13.45619,13.45619,0,0,0-1.51562-.207q-.82617-.06885-1.42188-.06836a7.19012,7.19012,0,0,0-2.14648.29785,3.76882,3.76882,0,0,0-1.59473.95312,4.29185,4.29185,0,0,0-.9873,1.72071,8.50888,8.50888,0,0,0-.34375,2.582v3.35058h6.49414V473.277h-6.49414v18.75h-3.55664v-18.75h-3.833v-3.05176h3.833v-3.32812a11.00455,11.00455,0,0,1,.63086-3.98145,7.20685,7.20685,0,0,1,1.73242-2.66211,6.83491,6.83491,0,0,1,2.59375-1.53711,10.16009,10.16009,0,0,1,3.21289-.49414,16.68017,16.68017,0,0,1,2.03027.11524,8.3291,8.3291,0,0,1,1.36621.252Z" transform="translate(-70 -62)"/><path d="M573.73759,489.61683h-.0918a7.109,7.109,0,0,1-1.10156,1.09082,7.99555,7.99555,0,0,1-1.53809.96387,9.50077,9.50077,0,0,1-1.9043.67676,9.27105,9.27105,0,0,1-2.20312.25293,8.59741,8.59741,0,0,1-2.90332-.4707,6.325,6.325,0,0,1-2.27149-1.377,6.21586,6.21586,0,0,1-1.48047-2.21484,7.84442,7.84442,0,0,1-.52832-2.96094,6.94866,6.94866,0,0,1,.58594-2.91406,6.16847,6.16847,0,0,1,1.64063-2.18066,7.41527,7.41527,0,0,1,2.53613-1.377,10.519,10.519,0,0,1,3.27051-.48144,18.165,18.165,0,0,1,3.14355.29785,16.37255,16.37255,0,0,1,2.57031.68847h.0918v-1.51464a9.75362,9.75362,0,0,0-.11426-1.583,4.08446,4.08446,0,0,0-.39062-1.2168,4.64051,4.64051,0,0,0-1.9043-1.82422,7.33878,7.33878,0,0,0-3.53515-.72265,14.96636,14.96636,0,0,0-3.10938.30957,19.60162,19.60162,0,0,0-2.90234.86035v-2.9834a9.26858,9.26858,0,0,1,1.2959-.51562,14.93882,14.93882,0,0,1,1.57226-.41309,16.64327,16.64327,0,0,1,1.74414-.26465q.917-.09083,1.83594-.0918a11.02726,11.02726,0,0,1,5.4043,1.1709,6.96674,6.96674,0,0,1,3.01855,3.09766,6.29709,6.29709,0,0,1,.49316,1.61816,11.7656,11.7656,0,0,1,.14942,1.93946V492.027h-2.98438ZM562.7913,465.153v-3.832h3.64843v3.832ZM573.554,482.45668q-.9829-.2754-2.33008-.52735a17.60241,17.60241,0,0,0-2.96972-.27539,5.76768,5.76768,0,0,0-3.541.96387,3.4649,3.4649,0,0,0-1.2793,2.96,4.522,4.522,0,0,0,.31934,1.76758,3.4006,3.4006,0,0,0,.87988,1.251,3.62363,3.62363,0,0,0,1.32422.73437,5.42721,5.42721,0,0,0,1.63379.24024,6.589,6.589,0,0,0,2.125-.332,9.01948,9.01948,0,0,0,1.74707-.792,9.6305,9.6305,0,0,0,1.30274-.918q.53613-.45849.78808-.71191ZM571.53446,465.153v-3.832h3.64941v3.832Z" transform="translate(-70 -62)"/><path d="M587.78153,473.20863h.06934a10.92308,10.92308,0,0,1,1.33105-1.41113,8.10608,8.10608,0,0,1,1.62891-1.125,9.30242,9.30242,0,0,1,1.92773-.7461,8.62239,8.62239,0,0,1,2.22656-.27539,9.52878,9.52878,0,0,1,2.47852.333,6.21039,6.21039,0,0,1,2.29492,1.18164,6.12411,6.12411,0,0,1,1.7207,2.36426,9.76088,9.76088,0,0,1,.666,3.90137V492.027h-3.55664V478.00453a6.57082,6.57082,0,0,0-.999-3.96973,3.8209,3.8209,0,0,0-3.27051-1.33105,6.84526,6.84526,0,0,0-3.58008,1.02148,9.57365,9.57365,0,0,0-2.9375,2.81055V492.027h-3.55664V458.79652h3.55664Z" transform="translate(-70 -62)"/><path d="M609.14872,465.153v-3.96973h3.55664V465.153Zm.09179,26.874V470.22523h3.55665V492.027Z" transform="translate(-70 -62)"/><path d="M628.35673,469.651a8.47408,8.47408,0,0,1,2.47851.36719,7.13791,7.13791,0,0,1,1.81348.86133,6.51062,6.51062,0,0,1,1.2041,1.02051,4.74952,4.74952,0,0,1,.6084.80371h.09179l.73438-2.47852h2.68555v23.08692a10.80412,10.80412,0,0,1-.82618,4.39453,8.37269,8.37269,0,0,1-2.31835,3.10937,9.81271,9.81271,0,0,1-3.5918,1.84766,16.6749,16.6749,0,0,1-4.64649.6084,17.75924,17.75924,0,0,1-3.85546-.37891,10.35851,10.35851,0,0,1-2.66211-.90625v-3.00683a15.61593,15.61593,0,0,0,1.51367.54q.73534.21681,1.51562.36719a15.55475,15.55475,0,0,0,1.59473.21778q.81446.06883,1.80176.06835a8.64869,8.64869,0,0,0,5.875-1.78906q2.042-1.79,2.042-5.46289v-2.91406H634.346a7.69771,7.69771,0,0,1-2.71875,1.93945,9.05749,9.05749,0,0,1-3.54589.6543,10.3065,10.3065,0,0,1-1.97364-.207,9.12593,9.12593,0,0,1-4.13086-2.00781,8.05045,8.05045,0,0,1-1.69824-2.043,11.28925,11.28925,0,0,1-1.18164-2.90332,15.06681,15.06681,0,0,1-.44824-3.87793,15.27472,15.27472,0,0,1,.82617-5.29,11.02384,11.02384,0,0,1,2.18066-3.70606,8.71959,8.71959,0,0,1,3.09864-2.1914A9.31071,9.31071,0,0,1,628.35673,469.651Zm-5.98926,11.61231a11.98836,11.98836,0,0,0,.61914,4.20019,6.74891,6.74891,0,0,0,1.57226,2.53614,5.10013,5.10013,0,0,0,2.07618,1.23925,7.53189,7.53189,0,0,0,2.13476.332,7.319,7.319,0,0,0,3.09766-.665,8.30281,8.30281,0,0,0,2.54785-1.81348V475.68715a8.15884,8.15884,0,0,0-.82617-.94141,7.29505,7.29505,0,0,0-1.22754-.97461,7.498,7.498,0,0,0-1.5957-.75781,6.40273,6.40273,0,0,0-4.73829.32129,5.76992,5.76992,0,0,0-2.01953,1.75586,8.011,8.011,0,0,0-1.22851,2.69629A13.67194,13.67194,0,0,0,622.36747,481.26332Z" transform="translate(-70 -62)"/></g></g><g id="GRAFIK"><polyline class="cls-2" points="286.521 67.436 234.521 192.436 112.521 470.436 379.521 570.436"/><polyline class="cls-2" points="379.521 263.436 376.578 257.233 286.521 67.436"/><line class="cls-2" x1="379" y1="574" x2="499" y2="552"/><polygon class="cls-2" points="286.521 67.436 234.521 192.436 357.521 342.436 399.521 289.436 399.521 220.436 286.521 67.436"/><line class="cls-2" x1="238.52128" y1="192.43617" x2="399.52128" y2="220.43617"/><polyline class="cls-2" points="357.521 338.436 375.521 258.436 404.521 220.436"/><polyline class="cls-2" points="112.521 470.436 376.521 257.436 399.521 289.436"/><circle class="cls-3" cx="497.68079" cy="551.81052" r="14"/><circle class="cls-4" cx="112.52128" cy="470.43617" r="14"/><circle class="cls-5" cx="375.52128" cy="258.43617" r="14"/><circle class="cls-6" cx="357.52128" cy="342.43617" r="14"/><circle class="cls-7" cx="399.52128" cy="289.43617" r="14"/><circle class="cls-8" cx="286.52128" cy="67.43617" r="14"/><circle class="cls-9" cx="234.52128" cy="192.43617" r="14"/><circle class="cls-10" cx="379.52128" cy="570.43617" r="14"/><circle class="cls-11" cx="399.52128" cy="220.43617" r="14"/></g></svg>